<svg fill="none" height="20" viewBox="0 0 20 20" width="20" xmlns="http://www.w3.org/2000/svg"><path clip-rule="evenodd" d="m9.29292 2.29289c.39053-.39052 1.02368-.39052 1.41418 0l7 7c.286.286.3716.71611.2168 1.08981s-.5194.6173-.9239.6173h-1v6c0 .5523-.4477 1-1 1h-2c-.5523 0-1-.4477-1-1v-3c0-.5523-.4477-1-1-1h-1.99997c-.55229 0-1 .4477-1 1v3c0 .5523-.44772 1-1 1h-2c-.55229 0-1-.4477-1-1v-6h-1c-.40446 0-.7691-.2436-.92388-.6173s-.06923-.80381.21677-1.08981z" fill="#fff" fill-rule="evenodd"/></svg>