<svg xmlns="http://www.w3.org/2000/svg" width="2603" height="1083.92" viewBox="0 0 2603 1083.92"><path id="Intersection_1" data-name="Intersection 1" d="M-231.435-531.12c-72.07-36-145.33-68.547-217.539-97.537h0c-178.241-71.612-350.021-122.36-478.371-156.893-42.01-11.3-89.06-23.456-139.65-35.557l-.014,0-.013,0c-29.072-7.823-119.664-30.183-244.59-51.209h-.008c-233.318-41.378-501.893-65.755-745.326-27.059-86.8,13.8-170.4,35.618-248.053,67.534v-2.162c77.611-31.82,161.093-53.573,247.74-67.346,243.751-38.746,512.577-14.331,745.988,27.064,124.977,21.034,215.618,43.405,244.76,51.246,50.608,12.1,97.672,24.264,139.677,35.567,128.4,34.543,300.26,85.315,478.6,156.969,72.261,29.008,145.57,61.575,217.7,97.6h0C-24.536-429.412,170.6-295.333,298-123.45v3.37C170.923-292.617-24.647-427.228-231.435-531.12Zm.45-.894.15-.3.3-.6Zm-217.778-97.172-.211.529.739-1.856Zm-618-192.891-.232.968.233-.972Zm-244.849-50.247.176-1.043-.185,1.042.175-.986ZM-214.844-546.853h0c-72.069-36-145.329-68.547-217.539-97.538C-610.624-716-782.405-766.749-910.755-801.282c-42-11.3-89.06-23.457-139.649-35.558l-.013,0-.014,0c-29.072-7.823-119.663-30.183-244.589-51.209h-.009c-233.317-41.378-501.892-65.756-745.326-27.059-93.024,14.787-182.356,38.779-264.644,74.547v-2.178c82.252-35.654,171.485-59.585,264.331-74.343,243.751-38.748,512.578-14.331,745.988,27.063h0c124.978,21.034,215.618,43.405,244.76,51.245,50.607,12.1,97.672,24.265,139.686,35.568,128.389,34.543,300.251,85.315,478.6,156.967,72.25,29.01,145.56,61.577,217.69,97.606h0C-16.689-449.536,170.6-322.4,298-160.87v3.235C170.848-319.76-16.851-447.379-214.844-546.853Zm-835.587-289.994.253-.935.007-.031Zm-244.6-51.21.174-.976.011-.067ZM-198.254-562.586v0c-72.077-36-145.337-68.545-217.542-97.534-178.24-71.611-350.02-122.36-478.37-156.893-42-11.3-89.06-23.458-139.648-35.558l-.014,0-.014,0c-29.072-7.822-119.663-30.182-244.59-51.209l-.009,0c-233.316-41.377-501.892-65.754-745.324-27.058-99.311,15.787-194.421,42.068-281.237,81.962v-2.2c86.788-39.769,181.8-65.981,280.922-81.738,243.751-38.747,512.578-14.33,745.989,27.065h0c124.954,21.03,215.582,43.4,244.741,51.24,50.613,12.107,97.682,24.267,139.7,35.571,128.391,34.544,300.261,85.316,478.6,156.969,72.25,29.01,145.56,61.578,217.69,97.6h0l-.036.071,0,.01.04-.081C-8.5-469.489,171.226-348.9,298-197.04v3.126C171.413-346.315-8.71-467.357-198.254-562.586ZM-1033.84-852.58l.251-.931.006-.027Zm-244.6-51.211.165-.923.012-.07ZM-181.664-578.318v0C-253.74-614.32-327-646.866-399.2-675.854c-178.24-71.614-350.02-122.361-478.37-156.894-42-11.3-89.06-23.456-139.65-35.557l-.01,0-.009,0c-29.075-7.82-119.669-30.182-244.595-51.209h-.008c-233.317-41.378-501.893-65.755-745.326-27.058-105.672,16.8-206.6,45.482-297.827,89.8V-859c91.214-44.182,192.034-72.79,297.514-89.557,243.75-38.745,512.568-14.331,745.979,27.064,124.992,21.037,215.647,43.412,244.782,51.25,50.6,12.1,97.657,24.262,139.669,35.564,128.391,34.544,300.261,85.315,478.6,156.97,72.25,29.008,145.561,61.575,217.691,97.6v0l-.067.131-.008.017.075-.148C-.013-489.294,172.393-374.913,298-232.128v3.034C172.527-372.383-.26-487.179-181.664-578.318Zm16.6-15.733h0c-72.08-36-145.34-68.548-217.55-97.538C-560.845-763.2-732.635-813.948-860.985-848.481c-42-11.3-89.059-23.456-139.649-35.557l-.01,0-.01,0c-29.075-7.823-119.668-30.183-244.593-51.209h-.01c-233.315-41.378-501.892-65.755-745.325-27.059C-2102.7-944.491-2209.474-913.289-2305-864.221v-2.248c95.52-48.914,202.183-80.029,314.1-97.82,243.75-38.746,512.567-14.332,745.979,27.064h0c124.992,21.038,215.647,43.412,244.781,51.251,50.6,12.1,97.658,24.261,139.67,35.563,128.39,34.544,300.26,85.315,478.6,156.969,72.25,29.008,145.56,61.576,217.69,97.6h0l-.039.077-.258.518.3-.6C8.742-508.963,174.026-400.513,298-266.266v2.951C174.114-398.031,8.468-506.864-165.064-594.05ZM-1245.092-936.179l-.155.925.164-.977Zm1096.618,326.4h0c-72.079-36-145.34-68.549-217.55-97.538C-544.254-778.932-716.045-829.682-844.4-864.214c-42-11.3-89.05-23.457-139.64-35.557l-.02,0-.01,0c-29.07-7.821-119.666-30.182-244.592-51.207l-.008,0c-233.317-41.378-501.893-65.754-745.326-27.059-118.66,18.863-231.324,52.71-331.009,106.858v-2.276c99.7-53.983,212.242-87.726,330.7-106.555,243.751-38.747,512.569-14.333,745.979,27.062,124.994,21.037,215.651,43.413,244.781,51.25h0c50.6,12.1,97.658,24.262,139.67,35.564,128.39,34.542,300.259,85.315,478.6,156.968,72.249,29.01,145.559,61.576,217.689,97.605v0C17.734-528.513,176.066-425.746,298-299.558v2.878C176.113-423.3,17.427-526.431-148.474-609.783Zm.445-.894.407-.816.038-.078Zm-836.035-289.1.255-.947v0Zm852.18,274.262h0c-72.08-36-145.341-68.548-217.541-97.538-178.24-71.611-350.03-122.359-478.38-156.893-42-11.3-89.05-23.458-139.64-35.557l-.02,0-.009,0c-29.071-7.822-119.666-30.182-244.591-51.209h-.009c-233.317-41.378-501.892-65.755-745.325-27.058-125.3,19.917-243.9,56.533-347.6,116.127v-2.306c103.726-59.4,222.216-95.915,347.287-115.8,243.75-38.747,512.578-14.33,745.989,27.064h0c124.992,21.038,215.641,43.411,244.77,51.248,50.6,12.1,97.668,24.263,139.67,35.565,128.39,34.543,300.26,85.315,478.6,156.968C-276.435-695.9-203.126-663.333-131-627.3h.01C26.931-547.963,178.467-450.647,298-332.1v2.817C178.482-448.232,26.591-545.9-131.884-625.516Zm.04-.081.439-.872.41-.835Zm-1080.23-341.123.166-.925.02-.117Zm1096.78,325.471h0c-72.08-36-145.34-68.548-217.54-97.537-178.241-71.613-350.02-122.36-478.381-156.893-42-11.3-89.05-23.457-139.64-35.558l-.02,0-.01,0c-29.07-7.823-119.664-30.182-244.59-51.209h-.007c-233.318-41.378-501.894-65.755-745.326-27.058C-2072.835-988.525-2197.436-948.99-2305-883.576v-2.339c107.6-65.2,232.1-104.625,363.877-125.572,243.75-38.747,512.569-14.332,745.98,27.064,124.992,21.038,215.648,43.411,244.778,51.25,50.6,12.1,97.668,24.261,139.671,35.563,128.389,34.543,300.259,85.315,478.6,156.97,72.25,29.007,145.56,61.575,217.7,97.6h0C36.305-567.321,181.188-475.241,298-363.957v2.762C181.175-472.85,35.931-565.272-115.294-641.249Zm.6-1.192.12-.238.181-.359Zm15.991-14.54h0c-72.069-36-145.34-68.548-217.54-97.537-178.24-71.613-350.02-122.362-478.381-156.893-42-11.3-89.05-23.457-139.639-35.558l-.021,0-.01,0c-29.07-7.821-119.663-30.182-244.589-51.208l-.007,0c-233.318-41.378-501.894-65.755-745.326-27.058-138.875,22.075-269.527,64.669-380.783,136.32V-891.3c111.312-71.422,241.843-113.881,380.468-135.917,243.751-38.746,512.57-14.332,745.98,27.064h0c124.992,21.038,215.646,43.413,244.776,51.25h0c50.611,12.1,97.668,24.261,139.671,35.563,128.4,34.543,300.259,85.315,478.6,156.969,72.259,29.009,145.57,61.576,217.7,97.6h0l-.447.887,0,.006.45-.894C45.829-586.606,184.2-499.551,298-395.2v2.718C184.15-497.208,45.453-584.555-98.7-656.981Zm-835.591-290,.259-.961v0Zm-244.6-51.21.155-.871.01-.058ZM-82.114-672.714h0c-72.069-36-145.329-68.548-217.54-97.538-178.24-71.612-350.019-122.36-478.37-156.893-42.01-11.3-89.06-23.457-139.649-35.556l-.011,0-.02,0c-29.07-7.822-119.662-30.182-244.587-51.209h-.009c-233.317-41.378-501.893-65.755-745.326-27.059C-2053.454-1017.8-2190.242-971.973-2305-893.657v-2.421c114.836-78.068,251.49-123.736,397.059-146.876,243.75-38.746,512.578-14.329,745.989,27.065,124.992,21.038,215.637,43.411,244.767,51.248h0c50.61,12.1,97.668,24.261,139.67,35.564,128.4,34.543,300.26,85.315,478.6,156.968,72.259,29.009,145.57,61.577,217.7,97.6v0C55.511-605.809,187.47-523.626,298-425.871v2.673C187.4-521.3,55.1-603.775-82.114-672.714Zm.3-.6.342-.68.257-.513Zm-1080.477-340.608.175-1.042-.01.057ZM-65.524-688.447v0c-72.07-36-145.33-68.548-217.541-97.538C-461.3-857.6-633.084-908.345-761.434-942.878c-42-11.3-89.06-23.456-139.65-35.557l-.011,0-.019,0c-29.07-7.822-119.66-30.181-244.587-51.209h-.008c-233.318-41.378-501.894-65.755-745.325-27.059-152.938,24.311-295.9,73.5-413.966,158.984v-11.2q.957-.884,1.915-1.763,8.18-8.019,16.6-15.744,8.18-8.019,16.575-15.718,8.18-8.019,16.6-15.741c130.8-128.228,305.2-196.534,494.688-226.653,243.751-38.747,512.577-14.331,745.986,27.064h0c124.969,21.032,215.595,43.4,244.749,51.241h0c50.611,12.107,97.682,24.267,139.7,35.572,128.39,34.544,300.25,85.316,478.589,156.968,72.261,29.009,145.571,61.577,217.7,97.6h0c79.324,39.853,157.038,84.242,229.9,133.58v2.417c-73.082-49.575-151.1-94.172-230.794-134.21h0c-72.07-36-145.331-68.547-217.54-97.537-178.241-71.613-350.02-122.36-478.371-156.893-42.009-11.3-89.06-23.456-139.65-35.558l-.009,0-.02,0c-29.07-7.821-119.66-30.182-244.591-51.207l-.01,0c-233.312-41.378-501.889-65.754-745.321-27.058-168.052,26.713-324.054,83.463-448.224,185.4,121.455-93.326,271-146.157,431.319-171.643,243.75-38.747,512.578-14.33,745.989,27.065,125,21.037,215.637,43.411,244.768,51.249,50.609,12.1,97.668,24.261,139.669,35.563,128.4,34.544,300.261,85.315,478.6,156.97,72.26,29.008,145.57,61.575,217.7,97.6h0l-.226.448-.224.445.45-.894C136.892-757.47,220.4-709.323,298-655.4v2.437C220.184-707.136,136.376-755.49,50.616-798.576c-72.07-36-145.341-68.547-217.541-97.538-178.24-71.613-350.02-122.36-478.38-156.893-42-11.3-89.05-23.456-139.64-35.557l-.01,0-.019,0c-29.072-7.82-119.66-30.182-244.589-51.208l-.009,0c-233.316-41.378-501.892-65.754-745.326-27.058-168.051,26.713-324.064,83.473-448.234,185.408,121.46-93.341,270.991-146.164,431.33-171.651,243.75-38.746,512.578-14.33,745.988,27.065,124.957,21.032,215.6,43.4,244.751,51.244,50.607,12.106,97.682,24.265,139.689,35.568,128.39,34.543,300.261,85.315,478.6,156.969,72.25,29.008,145.57,61.577,217.7,97.6h0l-.226.448-.074.148.3-.6C126.428-738.66,215.766-686.667,298-627.99v2.458C215.57-684.458,125.91-736.681,34.026-782.844v0c-72.08-36-145.34-68.548-217.54-97.538-178.24-71.612-350.021-122.36-478.38-156.893-42-11.3-89.05-23.457-139.64-35.557l-.02,0-.011,0c-29.07-7.822-119.659-30.182-244.588-51.209h-.009c-233.317-41.378-501.893-65.755-745.326-27.058-168.052,26.714-324.055,83.466-448.225,185.4,121.46-93.341,270.982-146.156,431.32-171.643,243.75-38.747,512.569-14.333,745.979,27.063h0c124.989,21.037,215.649,43.412,244.779,51.25h0c50.6,12.1,97.668,24.262,139.67,35.564,128.389,34.542,300.26,85.315,478.6,156.968,72.251,29.009,145.561,61.576,217.691,97.6l.01,0-.451.894.441-.9-.85,1.707.86-1.706C116.015-719.821,211.264-663.858,298-600.254v2.478C211.078-661.643,115.515-717.836,17.437-767.111h0c-72.081-36-145.34-68.547-217.54-97.537h0c-178.24-71.611-350.031-122.359-478.381-156.893-42-11.3-89.05-23.456-139.64-35.556l-.02,0-.011,0c-29.07-7.822-119.66-30.182-244.591-51.208h-.008c-233.316-41.378-501.892-65.756-745.325-27.059-168.037,26.712-324.048,83.472-448.212,185.39,121.454-93.325,270.983-146.148,431.307-171.633,243.75-38.747,512.577-14.331,745.988,27.064h0c124.991,21.037,215.642,43.411,244.772,51.248,50.6,12.1,97.667,24.261,139.669,35.564,128.39,34.544,300.261,85.315,478.6,156.968,72.251,29.01,145.561,61.577,217.691,97.606h.009l-.45.894.441-.895-.85,1.706.859-1.706C105.7-700.938,206.886-640.917,298-572.182v2.505C206.711-638.688,105.208-698.944.846-751.378c-72.081-36-145.341-68.547-217.541-97.537h-.011c-178.229-71.612-350.019-122.361-478.369-156.893-42-11.3-89.05-23.457-139.64-35.558l-.019,0-.011,0c-29.07-7.823-119.67-30.183-244.592-51.209l-.008,0c-233.317-41.378-501.892-65.754-745.326-27.059-168.052,26.713-324.062,83.471-448.231,185.405,121.46-93.341,270.987-146.161,431.326-171.648,243.751-38.746,512.577-14.33,745.988,27.065,124.991,21.037,215.644,43.411,244.774,51.248h0c50.6,12.1,97.658,24.262,139.67,35.564,128.39,34.544,300.261,85.316,478.6,156.969,72.25,29.008,145.56,61.576,217.69,97.6h0C95.461-682.01,202.646-617.825,298-543.747v2.533c-95.5-74.352-203.022-138.8-313.744-194.43h0c-72.081-36-145.341-68.548-217.552-97.538C-411.524-904.8-583.314-955.543-711.664-990.076c-42-11.3-89.06-23.456-139.65-35.556l-.011,0-.01,0c-29.07-7.822-119.669-30.183-244.593-51.21h-.008c-233.318-41.378-501.894-65.754-745.325-27.059-165.319,26.278-319,81.648-442.167,180.483-.29.325-.555.623-.844.949,120.513-90.869,268.059-142.551,426.106-167.674,243.751-38.747,512.577-14.331,745.989,27.064h0c124.992,21.037,215.643,43.411,244.774,51.247h0c50.6,12.1,97.657,24.261,139.67,35.564,128.39,34.543,300.26,85.315,478.6,156.969,72.25,29.009,145.56,61.577,217.689,97.6v0C85.305-663.043,198.579-594.551,298-514.929v2.564C198.437-592.29,84.849-661.034-32.345-719.913l0,0c-72.076-36-145.336-68.543-217.542-97.534-178.24-71.611-350.02-122.36-478.37-156.893-42-11.3-89.06-23.457-139.649-35.556l-.011,0-.01,0c-29.08-7.821-119.67-30.182-244.594-51.208l-.009,0c-233.317-41.378-501.893-65.755-745.324-27.059-161.293,25.638-311.494,78.954-433.1,173.325-.589.684-1.171,1.36-1.758,2.047,118.983-87.107,263.457-137.056,417.949-161.614,243.75-38.747,512.568-14.332,745.98,27.063h0c124.962,21.034,215.6,43.4,244.752,51.246v0c50.61,12.106,97.68,24.268,139.7,35.572,128.39,34.542,300.26,85.315,478.6,156.968,72.251,29.009,145.561,61.577,217.69,97.6h0C75.259-644.023,194.679-571.106,298-485.7v2.6C194.557-568.826,74.818-642.005-48.935-704.18l0,0c-72.076-36-145.336-68.546-217.542-97.534-178.241-71.613-350.02-122.36-478.37-156.893-42-11.3-89.06-23.457-139.65-35.558l-.01,0-.02,0c-29.07-7.821-119.66-30.181-244.585-51.208h-.009c-233.318-41.378-501.893-65.754-745.325-27.058-157.236,24.994-303.95,76.3-423.886,166.3-.805.965-1.6,1.928-2.4,2.9,117.32-83.3,258.583-131.467,409.385-155.438,243.75-38.746,512.569-14.332,745.98,27.063,124.962,21.032,215.6,43.4,244.754,51.244v0c50.611,12.106,97.68,24.268,139.7,35.572,128.39,34.543,300.25,85.315,478.6,156.969,72.249,29.008,145.561,61.575,217.689,97.6h0C65.322-624.948,190.971-547.467,298-456.023v2.632C190.872-545.165,64.9-622.923-65.524-688.447Zm.6-1.192.12-.238.18-.359ZM-216.706-848.915l.374-.913.376-.944Zm16.6-15.734.164-.41.575-1.445ZM-2300.02-907.692l-.845.95,1.148-.865.83-.993ZM-900.856-979.4l-.229.968.283-1.167Zm16.59-15.729-.229.965.281-1.162Zm-261.443-34.519.173-.976.009-.056Zm310.964-11.721.256-.949,0-.014Zm16.59-15.734.257-.955,0-.011Zm16.59-15.733.258-.955v-.007Zm-294.363-4.01.176-1.042-.184,1.041.175-.985Zm16.748-16.663-.156.931.158-.94Zm310.825-10.786.274-1.132-.044.165Zm-294.4-4.018.155-.869.008-.05Zm16.6-15.733.175-1.042-.184,1.041.175-.985Zm16.756-16.718-.166.986.167-1Zm16.412-14.747.122-.668.047-.279Z" transform="translate(2305 1204)" fill="#fff"></path></svg>