<svg fill="#111111" role="img" viewBox="0 0 24 24" xmlns="http://www.w3.org/2000/svg" aria-hidden="true">
  <title>Douyin</title>
  <path d="M19.321 5.562a5.124 5.124 0 0 1-.443-.258 6.228 6.228 0 0 1-1.065-1.038 4.76 4.76 0 0 1-.693-1.279 3.923 3.923 0 0 1-.19-1.25h-3.075v13.083c0 .684-.138 1.35-.41 1.979a4.577 4.577 0 0 1-1.183 1.675 5.238 5.238 0 0 1-1.768 1.108 5.708 5.708 0 0 1-2.127.394 5.715 5.715 0 0 1-2.127-.394 5.238 5.238 0 0 1-1.768-1.108 4.577 4.577 0 0 1-1.183-1.675 4.657 4.657 0 0 1-.41-1.979c0-1.825 1.064-3.395 2.601-4.137V9.4a7.67 7.67 0 0 0-4.601 7.025c0 2.115.857 4.03 2.243 5.422A7.714 7.714 0 0 0 12 22.714c2.115 0 4.03-.857 5.422-2.243a7.714 7.714 0 0 0 2.243-5.422c0-.276-.015-.549-.044-.818a7.652 7.652 0 0 0 0-8.669zM16.543 2.256V5.9a6.373 6.373 0 0 0 3.075-.787V2.256h-3.075z"/>
</svg>
