<svg id="colors" width="964" height="865" viewBox="0 0 964 865" fill="none" xmlns="http://www.w3.org/2000/svg"><path d="M609.182 239.625C602.569 232.974 595.4 227.673 587.786 223.542C552.068 204.216 506.932 211.114 465.799 225.959C455.858 229.573 446.14 233.612 436.856 237.872C413.935 248.382 393.585 260.161 378.703 269.266C373.834 272.246 368.426 275.63 362.704 279.356C359.33 281.42 349.017 288.03 335.73 298.031C285.701 335.002 229.38 391.571 245.576 455.01C253.854 472.387 261.465 486.843 267.185 497.107C268.313 499.073 270.634 502.927 273.802 507.982C363.02 634.537 488.753 667.083 563.481 673.348C596.547 676.118 619.623 673.743 625.051 672.104L625.078 672.088L625.106 672.071C638.198 658.636 750.339 470.249 627.496 264.177C626.596 262.707 625.697 261.238 624.798 259.768C620.035 251.985 614.812 245.344 609.171 239.669" fill="url(#paint0_linear_124_2821)"></path><path d="M484.787 395.443C484.475 387.762 483.079 380.589 480.767 373.876C469.887 342.418 438.794 321.589 405.718 307.78C397.71 304.458 389.602 301.517 381.633 298.949C361.963 292.605 343.143 288.453 329.108 285.713C324.516 284.817 319.374 283.867 313.853 282.949C310.672 282.328 300.779 280.611 287.213 279.295C236.508 273.928 171.149 276.918 145.803 324.22C141.181 339.304 137.774 352.254 135.546 361.624C135.139 363.436 134.407 367.05 133.522 371.86C117.343 497.738 175.292 587.034 216.975 632.204C235.421 652.191 250.68 663.535 254.867 665.551L254.893 665.556L254.919 665.561C270.27 664.694 442.359 612.968 482.256 420.42C482.527 419.034 482.797 417.648 483.068 416.263C484.501 408.922 485.023 402.017 484.757 395.464" fill="url(#paint1_linear_124_2821)"></path><path d="M311.65 789.031C315.54 795.662 320.147 801.335 325.346 806.17C349.747 828.81 386.983 832.561 422.666 829.184C431.295 828.348 439.834 827.128 448.074 825.645C468.416 821.988 486.976 816.798 500.649 812.611C505.123 811.242 510.107 809.661 515.411 807.873C518.51 806.924 528.048 803.786 540.638 798.564C587.905 779.443 644.172 746.054 644.282 692.39C641.264 676.905 638.177 663.875 635.735 654.558C635.241 652.768 634.187 649.234 632.705 644.574C587.756 525.887 494.609 474.355 436.575 454.108C410.895 445.151 392.094 442.32 387.45 442.511L387.425 442.519L387.4 442.526C374.262 450.514 246.746 577.124 302.132 765.8C302.546 767.15 302.959 768.5 303.372 769.851C305.562 777.002 308.35 783.341 311.668 788.998" fill="url(#paint2_linear_124_2821)"></path><path d="M54.7664 552.966C50.969 559.65 48.3606 566.477 46.773 573.396C39.3698 605.849 54.7428 639.971 75.5111 669.183C80.551 676.237 85.8775 683.022 91.2826 689.416C104.622 705.202 118.398 718.68 128.861 728.427C132.285 731.617 136.146 735.142 140.346 738.841C142.718 741.05 150.205 747.74 161.024 756.031C201.218 787.402 258.271 819.43 304.798 792.689C316.699 782.332 326.438 773.143 333.285 766.369C334.589 765.046 337.121 762.366 340.416 758.752C420.719 660.474 418.763 554.041 407.275 493.66C402.189 466.942 395.239 449.244 392.751 445.319L392.732 445.301L392.713 445.283C379.225 437.9 205.816 390.789 70.1241 533.106C69.1615 534.139 68.199 535.172 67.2364 536.206C62.1384 541.678 58.0433 547.262 54.8033 552.965" fill="white"></path><path d="M347.512 128.293C343.629 126.029 339.656 124.458 335.621 123.484C316.699 118.941 296.649 127.701 279.433 139.648C275.276 142.547 271.274 145.616 267.501 148.733C258.183 156.426 250.213 164.39 244.445 170.442C242.558 172.422 240.471 174.656 238.281 177.087C236.973 178.458 233.013 182.791 228.094 189.06C209.487 212.35 190.384 245.489 205.707 272.867C211.683 279.893 216.991 285.648 220.905 289.695C221.67 290.466 223.22 291.964 225.31 293.915C282.229 341.513 344.463 341.077 379.838 334.763C395.491 331.967 405.883 328.022 408.194 326.594L408.205 326.582L408.216 326.571C412.621 318.736 441.315 217.675 359.02 137.403C358.422 136.834 357.824 136.264 357.227 135.694C354.062 132.678 350.824 130.247 347.512 128.315" fill="white"></path><path d="M908.705 295.912C912.53 289.244 915.166 282.428 916.782 275.514C924.318 243.092 909.085 208.908 888.437 179.611C883.426 172.536 878.128 165.729 872.749 159.313C859.474 143.472 845.754 129.938 835.331 120.148C831.92 116.945 828.074 113.403 823.889 109.688C821.526 107.468 814.066 100.748 803.282 92.4123C763.216 60.8774 706.295 28.6151 659.659 55.1646C647.716 65.4734 637.938 74.6226 631.064 81.3684C629.755 82.6859 627.211 85.3556 623.902 88.9557C543.196 186.903 544.716 293.344 555.956 353.772C560.932 380.51 567.81 398.236 570.282 402.172L570.301 402.19L570.32 402.208C583.777 409.645 756.991 457.467 893.266 315.709C894.233 314.679 895.199 313.65 896.166 312.621C901.287 307.17 905.405 301.602 908.668 295.913" fill="white"></path><defs><lineargradient id="paint0_linear_124_2821" x1="379.029" y1="269.067" x2="625.485" y2="671.839" gradientUnits="userSpaceOnUse"><stop stop-color="#0078B3"></stop><stop offset="1" stop-color="#48C6EC"></stop></lineargradient><lineargradient id="paint1_linear_124_2821" x1="329.415" y1="285.773" x2="255.277" y2="665.631" gradientUnits="userSpaceOnUse"><stop stop-color="#963291"></stop><stop offset="1" stop-color="#CB529C"></stop></lineargradient><lineargradient id="paint2_linear_124_2821" x1="500.35" y1="812.703" x2="387.051" y2="442.633" gradientUnits="userSpaceOnUse"><stop stop-color="#F05F22"></stop><stop offset="1" stop-color="#FF9F00"></stop></lineargradient></defs></svg>